<?xml version="1.0" encoding="UTF-8"?>
<svg version="1.1" xmlns="http://www.w3.org/2000/svg" width="40" height="40">
<path d="M0 0 C0.89009766 -0.020625 1.78019531 -0.04125 2.69726562 -0.0625 C7.96550808 -0.09374236 11.63524653 0.29175327 16.1875 3.25 C20.79831049 8.33779089 20.4003646 13.56844735 20.4375 20.0625 C20.458125 20.95259766 20.47875 21.84269531 20.5 22.75976562 C20.53124236 28.02800808 20.14574673 31.69774653 17.1875 36.25 C12.09970911 40.86081049 6.86905265 40.4628646 0.375 40.5 C-0.51509766 40.520625 -1.40519531 40.54125 -2.32226562 40.5625 C-7.59050808 40.59374236 -11.26024653 40.20824673 -15.8125 37.25 C-20.42331049 32.16220911 -20.0253646 26.93155265 -20.0625 20.4375 C-20.083125 19.54740234 -20.10375 18.65730469 -20.125 17.74023438 C-20.15624236 12.47199192 -19.77074673 8.80225347 -16.8125 4.25 C-11.72470911 -0.36081049 -6.49405265 0.0371354 0 0 Z " fill="#582DE1" transform="translate(19.8125,-0.25)"/>
<path d="M0 0 C0.625 2.5 0.625 2.5 0 5 C-2.3832946 6.81883009 -3.95818337 8 -7 8 C-7 9.98 -7 11.96 -7 14 C-3.535 13.505 -3.535 13.505 0 13 C0.74957157 9.52852158 0.74957157 9.52852158 1 6 C1.556875 6.20625 2.11375 6.4125 2.6875 6.625 C5.659538 7.10695211 7.31979941 6.26565028 10 5 C10.33 7.31 10.66 9.62 11 12 C13.31 10.02 15.62 8.04 18 6 C18.0816082 8.37570543 18.14077222 10.74855841 18.1875 13.125 C18.21263672 13.79015625 18.23777344 14.4553125 18.26367188 15.140625 C18.33329551 19.87503248 17.47471189 22.97934218 15 27 C10.47676354 31.09918304 6.1648594 31.13353704 0.3125 31.0625 C-0.7403418 31.05573242 -0.7403418 31.05573242 -1.81445312 31.04882812 C-3.54300538 31.03706927 -5.27151365 31.01913454 -7 31 C-5.68 29.35 -4.36 27.7 -3 26 C-3.60328125 25.76925781 -4.2065625 25.53851563 -4.828125 25.30078125 C-10.61515809 22.93929839 -14.11912519 20.76174962 -17 15 C-17.50890436 8.89314771 -17.0775461 5.87040228 -13 1 C-8.41310787 -3.15687099 -5.02334012 -4.18611677 0 0 Z " fill="#907EEE" transform="translate(22,9)"/>
<path d="M0 0 C0.0816082 2.37570543 0.14077222 4.74855841 0.1875 7.125 C0.21263672 7.79015625 0.23777344 8.4553125 0.26367188 9.140625 C0.33329551 13.87503248 -0.52528811 16.97934218 -3 21 C-7.52323646 25.09918304 -11.8351406 25.13353704 -17.6875 25.0625 C-18.38939453 25.05798828 -19.09128906 25.05347656 -19.81445312 25.04882812 C-21.54300538 25.03706927 -23.27151365 25.01913454 -25 25 C-23.33002248 22.17442623 -21.67560293 19.9320989 -19 18 C-15.19606523 17.67648291 -11.72199491 18.21189076 -8 19 C-8.165 18.29875 -8.33 17.5975 -8.5 16.875 C-9.82811748 9.23832451 -9.82811748 9.23832451 -7.3203125 5.48828125 C-1.78276481 0 -1.78276481 0 0 0 Z " fill="#32B2ED" transform="translate(40,15)"/>
<path d="M0 0 C2.95529457 0.36040178 3.75137927 1.02476855 5.5625 3.3125 C6.01625 2.8175 6.47 2.3225 6.9375 1.8125 C8.5625 0.3125 8.5625 0.3125 10.5625 0.3125 C12.15964885 3.80626311 13.37953804 6.49965581 12.5625 10.3125 C10.42279096 12.8684118 8.05602282 15.10522342 5.5625 17.3125 C4.1018715 14.66511084 3.5625 13.41801666 3.5625 10.3125 C1.5825 10.9725 -0.3975 11.6325 -2.4375 12.3125 C-4.4375 10.3125 -4.4375 10.3125 -4.703125 8.4375 C-4.69796875 7.73625 -4.6928125 7.035 -4.6875 6.3125 C-4.69265625 5.61125 -4.6978125 4.91 -4.703125 4.1875 C-4.26410186 1.08851312 -2.98750291 0.38301319 0 0 Z " fill="#5953E8" transform="translate(27.4375,4.6875)"/>
<path d="M0 0 C1.14982602 4.09003859 1.11094256 8.03177051 1.0625 12.25 C1.05798828 12.99507812 1.05347656 13.74015625 1.04882812 14.5078125 C1.03709246 16.3385764 1.0191585 18.16929873 1 20 C-2.3 20 -5.6 20 -9 20 C-9 19.01 -9 18.02 -9 17 C-8.01 17 -7.02 17 -6 17 C-8.98241547 16.22678118 -11.97580475 15.58803797 -15 15 C-14.67 14.34 -14.34 13.68 -14 13 C-11.69 13.33 -9.38 13.66 -7 14 C-7.165 13.401875 -7.33 12.80375 -7.5 12.1875 C-8.33553852 8.53201896 -8 4.74036509 -8 1 C-7.13375 1.309375 -7.13375 1.309375 -6.25 1.625 C-3.48032433 2.08661261 -2.35438733 1.42944945 0 0 Z " fill="#99A1F2" transform="translate(31,14)"/>
<path d="M0 0 C2.0625 2 2.0625 2 2.375 4.6875 C2.2203125 5.8321875 2.2203125 5.8321875 2.0625 7 C-0.70014289 7.59732819 -3.09782769 8 -5.9375 8 C-5.9375 7.34 -5.9375 6.68 -5.9375 6 C-6.9275 6.33 -7.9175 6.66 -8.9375 7 C-9.9275 6.67 -10.9175 6.34 -11.9375 6 C-10.8795768 2.59113635 -9.78883401 1.91304442 -6.625 0.0625 C-2.9375 -1 -2.9375 -1 0 0 Z " fill="#9177EC" transform="translate(19.9375,7)"/>
<path d="M0 0 C3.3 0.99 6.6 1.98 10 3 C7.19893059 7.28913754 7.19893059 7.28913754 5 9 C1.44281753 9.36728079 -1.79117067 8.60441466 -5 7 C-3.61410019 3.90837736 -2.50816459 2.50816459 0 0 Z " fill="#4474EA" transform="translate(10,31)"/>
<path d="M0 0 C4.44936709 -0.36075949 4.44936709 -0.36075949 6.8125 1.1875 C8 3 8 3 8 8 C4.7 8 1.4 8 -2 8 C-2 7.01 -2 6.02 -2 5 C-1.01 5 -0.02 5 1 5 C-1.98241547 4.22678118 -4.97580475 3.58803797 -8 3 C-7.67 2.34 -7.34 1.68 -7 1 C-4.69 1.33 -2.38 1.66 0 2 C0 1.34 0 0.68 0 0 Z " fill="#9BBBF4" transform="translate(24,26)"/>
<path d="M0 0 C0.33 0 0.66 0 1 0 C1.33 3.96 1.66 7.92 2 12 C-2.17908064 14.08954032 -2.80410573 14.16552619 -7 13 C-7 11.02 -7 9.04 -7 7 C-5.5459375 6.38125 -5.5459375 6.38125 -4.0625 5.75 C-0.87739901 4.35100832 -0.87739901 4.35100832 -0.125 1.8125 C-0.08375 1.214375 -0.0425 0.61625 0 0 Z " fill="#5741E6" transform="translate(22,10)"/>
<path d="M0 0 C0.90734518 7.71243399 0.90734518 7.71243399 -1.23046875 10.74609375 C-2.8125 12.125 -2.8125 12.125 -6 14 C-6.99 13.67 -7.98 13.34 -9 13 C-9.35964961 9.74031863 -9.31635547 8.41291956 -7.28515625 5.76171875 C-6.55167969 5.07722656 -5.81820312 4.39273437 -5.0625 3.6875 C-4.33160156 2.99011719 -3.60070313 2.29273438 -2.84765625 1.57421875 C-1 0 -1 0 0 0 Z " fill="#3E89EB" transform="translate(40,15)"/>
<path d="M0 0 C2.5 0.25 2.5 0.25 4.5 2.25 C4.125 5.375 4.125 5.375 3.5 8.25 C0.625 8.875 0.625 8.875 -2.5 9.25 C-4.5 7.25 -4.5 7.25 -4.75 4.75 C-4.40058445 1.25584452 -3.49415548 0.34941555 0 0 Z " fill="#9F92F1" transform="translate(27.5,4.75)"/>
<path d="M0 0 C1.875 0.3125 1.875 0.3125 4 1 C6.17160137 4.25740206 6.28537443 5.38287825 5.625 9.125 C5 11 5 11 3 12 C3 10.68 3 9.36 3 8 C2.01 9.32 1.02 10.64 0 12 C-0.66 11.67 -1.32 11.34 -2 11 C-2.28571429 3.57142857 -2.28571429 3.57142857 0 0 Z " fill="#AC99F0" transform="translate(7,12)"/>
<path d="M0 0 C2.1953125 0.3046875 2.1953125 0.3046875 5.8203125 1.2421875 C3.08974255 5.47016677 3.08974255 5.47016677 0.8203125 7.2421875 C-2.24406318 7.76487365 -5.10196897 7.60427203 -8.1796875 7.2421875 C-3.68103279 0.40900364 -3.68103279 0.40900364 0 0 Z " fill="#3C9DEC" transform="translate(23.1796875,32.7578125)"/>
<path d="M0 0 C0.66 0 1.32 0 2 0 C2.4375 2.0625 2.4375 2.0625 2 5 C-0.12080183 7.57260172 -2.50627561 9.79254499 -5 12 C-5.66 10.68 -6.32 9.36 -7 8 C-5.88200014 6.66079162 -4.75538103 5.32877444 -3.625 4 C-2.68527344 2.88625 -2.68527344 2.88625 -1.7265625 1.75 C-1.15679687 1.1725 -0.58703125 0.595 0 0 Z " fill="#4572E9" transform="translate(38,10)"/>
<path d="M0 0 C0.33 0 0.66 0 1 0 C1.375 2.1875 1.375 2.1875 1 5 C-0.82787641 7.19925447 -2.56512539 8.37675026 -5 10 C-5.99 9.67 -6.98 9.34 -8 9 C-6.85459775 7.68712379 -5.70866567 6.37470979 -4.5625 5.0625 C-3.92441406 4.33160156 -3.28632812 3.60070312 -2.62890625 2.84765625 C-1.77458541 1.87860647 -0.91348825 0.91348825 0 0 Z " fill="#389BEC" transform="translate(39,19)"/>
<path d="M0 0 C0.99 0.33 1.98 0.66 3 1 C1.60667426 4.36720387 0.0210714 5.9859524 -3 8 C-3.66 7.67 -4.32 7.34 -5 7 C-3.70700306 4.11562221 -2.34058637 2.12780579 0 0 Z " fill="#4F4FE7" transform="translate(10,31)"/>
<path d="M0 0 C1.6875 0.9375 1.6875 0.9375 2.6875 2.9375 C2.3575 3.5975 2.0275 4.2575 1.6875 4.9375 C-1.64583333 4.9375 -4.97916667 4.9375 -8.3125 4.9375 C-2.92877162 -0.07915599 -2.92877162 -0.07915599 0 0 Z " fill="#818BEF" transform="translate(22.3125,23.0625)"/>
<path d="M0 0 C0.33 0.99 0.66 1.98 1 3 C-0.9628843 6.1708131 -2.12536 7.74158364 -5.75 8.8125 C-6.4925 8.874375 -7.235 8.93625 -8 9 C-7.04270084 7.87411986 -6.08412105 6.7493285 -5.125 5.625 C-4.59132812 4.99851562 -4.05765625 4.37203125 -3.5078125 3.7265625 C-2.38567993 2.44163349 -1.20628025 1.20628025 0 0 Z " fill="#2AC6EF" transform="translate(38,30)"/>
<path d="M0 0 C2 1.1875 2 1.1875 4 3 C4.25 5.6875 4.25 5.6875 4 8 C2.35 8 0.7 8 -1 8 C-1 7.01 -1 6.02 -1 5 C-0.34 5 0.32 5 1 5 C0.67 3.35 0.34 1.7 0 0 Z " fill="#8EC6F4" transform="translate(28,26)"/>
<path d="M0 0 C1.23556641 0.01740234 1.23556641 0.01740234 2.49609375 0.03515625 C3.32238281 0.04417969 4.14867187 0.05320312 5 0.0625 C5.63808594 0.07410156 6.27617187 0.08570312 6.93359375 0.09765625 C6.93359375 0.75765625 6.93359375 1.41765625 6.93359375 2.09765625 C5.94359375 2.42765625 4.95359375 2.75765625 3.93359375 3.09765625 C3.60359375 3.75765625 3.27359375 4.41765625 2.93359375 5.09765625 C1.28359375 4.76765625 -0.36640625 4.43765625 -2.06640625 4.09765625 C-1.07640625 3.43765625 -0.08640625 2.77765625 0.93359375 2.09765625 C-0.38640625 1.76765625 -1.70640625 1.43765625 -3.06640625 1.09765625 C-2.06640625 0.09765625 -2.06640625 0.09765625 0 0 Z " fill="#7895EF" transform="translate(18.06640625,28.90234375)"/>
<path d="M0 0 C0.99 1.32 1.98 2.64 3 4 C2.01 4.495 2.01 4.495 1 5 C0.67 5.99 0.34 6.98 0 8 C-0.66 7.67 -1.32 7.34 -2 7 C-2.125 4.625 -2.125 4.625 -2 2 C-1.34 1.34 -0.68 0.68 0 0 Z " fill="#917DEE" transform="translate(25,5)"/>
<path d="M0 0 C0.33 1.32 0.66 2.64 1 4 C-0.1875 5.8125 -0.1875 5.8125 -2 7 C-3.32 6.67 -4.64 6.34 -6 6 C-4.02 4.02 -2.04 2.04 0 0 Z " fill="#3E87EB" transform="translate(21,33)"/>
<path d="M0 0 C1.98 0.66 3.96 1.32 6 2 C6 3.32 6 4.64 6 6 C3.69 5.67 1.38 5.34 -1 5 C-0.67 3.35 -0.34 1.7 0 0 Z " fill="#76A0F0" transform="translate(26,22)"/>
<path d="M0 0 C0 0.66 0 1.32 0 2 C-1.95927063 3.7143618 -3.95880212 5.38405168 -6 7 C-6.66 6.34 -7.32 5.68 -8 5 C-3.375 0 -3.375 0 0 0 Z " fill="#4962E8" transform="translate(16,33)"/>
<path d="M0 0 C-2.49409061 1.57035335 -3.70443416 2.0274945 -6.6875 1.75 C-7.8321875 1.37875 -7.8321875 1.37875 -9 1 C-9.33 0.34 -9.66 -0.32 -10 -1 C-6.18510326 -2.46726798 -3.70988378 -1.43336419 0 0 Z " fill="#A8AEF4" transform="translate(20,31)"/>
<path d="M0 0 C4.75 0.75 4.75 0.75 7 3 C6.360625 3.12375 5.72125 3.2475 5.0625 3.375 C4.381875 3.58125 3.70125 3.7875 3 4 C2.67 4.66 2.34 5.32 2 6 C1.34 4.02 0.68 2.04 0 0 Z " fill="#A491F0" transform="translate(12,13)"/>
<path d="M0 0 C-1.49097658 3.7952131 -3.75700849 5.61042731 -7 8 C-6.44414399 4.1090079 -4.34122117 0 0 0 Z " fill="#4B5DE8" transform="translate(39,8)"/>
<path d="M0 0 C1.65 0.99 3.3 1.98 5 3 C4.67 3.99 4.34 4.98 4 6 C3.01 5.67 2.02 5.34 1 5 C1.33 4.34 1.66 3.68 2 3 C0.35 2.67 -1.3 2.34 -3 2 C-2.01 1.34 -1.02 0.68 0 0 Z " fill="#A793F0" transform="translate(17,6)"/>
<path d="M0 0 C0.99 0.66 1.98 1.32 3 2 C2.67 3.65 2.34 5.3 2 7 C1.34 6.67 0.68 6.34 0 6 C0 5.01 0 4.02 0 3 C-0.66 3 -1.32 3 -2 3 C-1 1 -1 1 0 0 Z " fill="#9DB2F3" transform="translate(29,17)"/>
</svg>
